<svg xmlns="http://www.w3.org/2000/svg" xmlns:xlink="http://www.w3.org/1999/xlink" width="500" zoomAndPan="magnify" viewBox="0 0 375 374.999991" height="500" preserveAspectRatio="xMidYMid meet" version="1.0"><defs><filter x="0%" y="0%" width="100%" height="100%" id="528dd8c8b6"><feColorMatrix values="0 0 0 0 1 0 0 0 0 1 0 0 0 0 1 0 0 0 1 0" color-interpolation-filters="sRGB"/></filter><g/><mask id="b88379d9a6"><g filter="url(#528dd8c8b6)"><rect x="-37.5" width="450" fill="#000000" y="-37.499999" height="449.999989" fill-opacity="0.7"/></g></mask><clipPath id="370fd7feb8"><rect x="0" width="242" y="0" height="349"/></clipPath></defs><g mask="url(#b88379d9a6)"><g transform="matrix(1, 0, 0, 1, 28, 0)"><g clip-path="url(#370fd7feb8)"><g fill="#284c38" fill-opacity="1"><g transform="translate(0.816332, 256.322142)"><g><path d="M 109.71875 -224.046875 C 146.09375 -224.046875 173.859375 -214.644531 193.015625 -195.84375 C 212.171875 -177.050781 221.75 -149.109375 221.75 -112.015625 C 221.75 -75.035156 212.171875 -47.117188 193.015625 -28.265625 C 173.859375 -9.421875 146.09375 0 109.71875 0 L 29.109375 0 L 29.109375 -224.046875 Z M 107.125 -37.234375 C 130.207031 -37.234375 147.46875 -43.132812 158.90625 -54.9375 C 170.351562 -66.738281 176.078125 -85.765625 176.078125 -112.015625 C 176.078125 -138.273438 170.351562 -157.300781 158.90625 -169.09375 C 147.46875 -180.894531 130.207031 -186.796875 107.125 -186.796875 L 73.40625 -186.796875 L 73.40625 -37.234375 Z M 107.125 -37.234375 "/></g></g></g></g></g></g><g fill="#284c38" fill-opacity="1"><g transform="translate(106.656537, 343.906598)"><g><path d="M 109.71875 -224.03125 C 146.082031 -224.03125 173.84375 -214.628906 193 -195.828125 C 212.15625 -177.035156 221.734375 -149.097656 221.734375 -112.015625 C 221.734375 -75.035156 212.15625 -47.117188 193 -28.265625 C 173.84375 -9.421875 146.082031 0 109.71875 0 L 29.109375 0 L 29.109375 -224.03125 Z M 107.109375 -37.234375 C 130.203125 -37.234375 147.46875 -43.132812 158.90625 -54.9375 C 170.34375 -66.738281 176.0625 -85.765625 176.0625 -112.015625 C 176.0625 -138.265625 170.34375 -157.289062 158.90625 -169.09375 C 147.46875 -180.894531 130.203125 -186.796875 107.109375 -186.796875 L 73.40625 -186.796875 L 73.40625 -37.234375 Z M 107.109375 -37.234375 "/></g></g></g></svg>